<!DOCTYPE svg PUBLIC "-//W3C//DTD SVG 1.1//EN" "http://www.w3.org/Graphics/SVG/1.1/DTD/svg11.dtd">
<!-- Uploaded to: SVG Repo, www.svgrepo.com, Transformed by: SVG Repo Mixer Tools -->
<svg fill="#ffffff" height="800px" width="800px" version="1.1" xmlns="http://www.w3.org/2000/svg" viewBox="0 0 463.052 463.052" xmlns:xlink="http://www.w3.org/1999/xlink" enable-background="new 0 0 463.052 463.052" stroke="#ffffff">
<g id="SVGRepo_bgCarrier" stroke-width="0"/>
<g id="SVGRepo_tracerCarrier" stroke-linecap="round" stroke-linejoin="round"/>
<g id="SVGRepo_iconCarrier"> <g> <path d="m127.534,140.048c-4.143,0-7.5,3.357-7.5,7.5v16c0,4.143 3.357,7.5 7.5,7.5s7.5-3.357 7.5-7.5v-16c0-4.143-3.357-7.5-7.5-7.5z"/> <path d="m127.534,188.048c-4.143,0-7.5,3.357-7.5,7.5v16c0,4.143 3.357,7.5 7.5,7.5s7.5-3.357 7.5-7.5v-16c0-4.143-3.357-7.5-7.5-7.5z"/> <path d="m111.534,172.048h-16c-4.143,0-7.5,3.357-7.5,7.5s3.357,7.5 7.5,7.5h16c4.143,0 7.5-3.357 7.5-7.5s-3.357-7.5-7.5-7.5z"/> <path d="m143.534,172.048c-4.143,0-7.5,3.357-7.5,7.5s3.357,7.5 7.5,7.5h16c4.143,0 7.5-3.357 7.5-7.5s-3.357-7.5-7.5-7.5h-16z"/> <path d="m335.534,163.037c4.143,0 7.5-3.357 7.5-7.5v-7.989c0-4.143-3.357-7.5-7.5-7.5s-7.5,3.357-7.5,7.5v7.989c0,4.143 3.358,7.5 7.5,7.5z"/> <path d="m335.534,219.048c4.143,0 7.5-3.357 7.5-7.5v-8.011c0-4.143-3.357-7.5-7.5-7.5s-7.5,3.357-7.5,7.5v8.011c0,4.142 3.358,7.5 7.5,7.5z"/> <path d="m319.034,179.548c0-4.143-3.357-7.5-7.5-7.5h-8c-4.143,0-7.5,3.357-7.5,7.5s3.357,7.5 7.5,7.5h8c4.143,0 7.5-3.358 7.5-7.5z"/> <path d="m359.534,187.048h8c4.143,0 7.5-3.357 7.5-7.5s-3.357-7.5-7.5-7.5h-8c-4.143,0-7.5,3.357-7.5,7.5s3.358,7.5 7.5,7.5z"/> <path d="m179.534,236.048c-6.341,0-11.5,5.159-11.5,11.5s5.159,11.5 11.5,11.5 11.5-5.159 11.5-11.5-5.159-11.5-11.5-11.5z"/> <path d="m283.534,236.048c-6.341,0-11.5,5.159-11.5,11.5s5.159,11.5 11.5,11.5 11.5-5.159 11.5-11.5-5.159-11.5-11.5-11.5z"/> <path d="m459.919,302.721l-56-184c-5.561-18.271-17.908-33.285-34.768-42.275-16.858-8.99-36.197-10.876-54.45-5.31-14.396,4.38-26.873,13.129-35.916,25.001-1.653-11.352-11.448-20.1-23.251-20.1h-48c-11.81,0-21.609,8.757-23.253,20.119-9.044-11.882-21.525-20.638-35.927-25.019-18.258-5.566-37.597-3.68-54.453,5.309-16.859,8.99-29.207,24.004-34.768,42.275l-56,183.999c-5.562,18.271-3.675,37.613 5.313,54.465 8.987,16.853 24,29.195 42.27,34.754 6.785,2.066 13.797,3.114 20.842,3.114 15.005,0 29.977-4.894 42.157-13.779 12.601-9.192 21.668-21.959 26.221-36.92l17.981-59.081c6.374,3.667 13.751,5.776 21.617,5.776 13.611,0 25.777-6.288 33.759-16.106 0.397,0.065 0.801,0.107 1.216,0.107h34.024c0.423,0 0.834-0.043 1.238-0.111 7.982,9.821 20.149,16.11 33.762,16.11 7.86,0 15.233-2.106 21.603-5.767l17.979,59.073c4.553,14.961 13.62,27.728 26.221,36.92 12.181,8.886 27.152,13.779 42.157,13.779 7.045,0 14.057-1.048 20.84-3.114 18.271-5.559 33.284-17.901 42.271-34.754 8.99-16.853 10.876-36.196 5.315-54.465zm-252.385-211.684h48c4.687,0 8.5,3.813 8.5,8.5v0.5h-65v-0.5c0-4.686 3.814-8.5 8.5-8.5zm-39.063,114.441c-11.344,2.986-20.883,10.452-26.62,20.381-4.629,1.432-9.44,2.16-14.334,2.16-26.743,0-48.5-21.757-48.5-48.5s21.757-48.5 48.5-48.5 48.5,21.757 48.5,48.5c0.001,9.263-2.604,18.192-7.546,25.959zm11.063,70.57c-15.715,0-28.5-12.785-28.5-28.5s12.785-28.5 28.5-28.5 28.5,12.785 28.5,28.5-12.785,28.5-28.5,28.5zm75.5-28.5c0-15.715 12.785-28.5 28.5-28.5s28.5,12.785 28.5,28.5-12.785,28.5-28.5,28.5-28.5-12.785-28.5-28.5zm31.984-68.029c0-26.743 21.757-48.5 48.5-48.5s48.5,21.757 48.5,48.5-21.757,48.5-48.5,48.5c-4.879,0-9.676-0.724-14.293-2.147-5.743-9.947-15.3-17.425-26.667-20.405-4.938-7.764-7.54-16.689-7.54-25.948zm154.353,170.607c-7.103,13.316-18.966,23.069-33.406,27.463-5.367,1.635-10.908,2.464-16.471,2.464-25.022,0-46.734-16.102-54.028-40.066l-19.902-65.389c5.92-7.432 9.47-16.831 9.47-27.049 0-1.742-0.115-3.457-0.315-5.146 2.903,0.404 5.839,0.616 8.798,0.616 35.014,0 63.5-28.486 63.5-63.5s-28.486-63.5-63.5-63.5-63.5,28.486-63.5,63.5c0,8.691 1.759,17.156 5.131,25.002-20.969,3.099-37.115,21.21-37.115,43.027 0,4.345 0.648,8.539 1.839,12.501h-20.678c1.191-3.962 1.839-8.156 1.839-12.501 0-21.828-16.161-39.946-37.146-43.031 3.371-7.844 5.129-16.308 5.129-24.998 0-35.014-28.486-63.5-63.5-63.5s-63.5,28.486-63.5,63.5 28.486,63.5 63.5,63.5c2.971,0 5.918-0.215 8.832-0.622-0.2,1.691-0.315,3.407-0.315,5.151 0,10.211 3.545,19.604 9.458,27.034l-19.906,65.405c-7.294,23.965-29.006,40.066-54.028,40.066-5.563,0-11.104-0.829-16.473-2.464-14.438-4.394-26.302-14.146-33.404-27.463-7.102-13.316-8.593-28.601-4.198-43.038l56-184c4.395-14.438 14.152-26.302 27.476-33.406 13.321-7.102 28.6-8.593 43.025-4.196 13.688,4.165 25.197,13.329 32.405,25.804 1.341,2.319 3.815,3.748 6.494,3.748h97.286c2.679,0 5.153-1.429 6.494-3.748 7.208-12.475 18.717-21.639 32.408-25.805 14.423-4.396 29.701-2.906 43.022,4.197 13.323,7.104 23.081,18.968 27.476,33.406l56,184.001c4.396,14.436 2.905,29.721-4.197,43.037z"/> <path d="m231.534,156.037c-12.958,0-23.5,10.542-23.5,23.5s10.542,23.5 23.5,23.5 23.5-10.542 23.5-23.5-10.542-23.5-23.5-23.5zm0,32c-4.687,0-8.5-3.813-8.5-8.5s3.813-8.5 8.5-8.5 8.5,3.813 8.5,8.5-3.813,8.5-8.5,8.5z"/> </g> </g>
</svg>